<svg xmlns="http://www.w3.org/2000/svg" xmlns:xlink="http://www.w3.org/1999/xlink" width="1800" zoomAndPan="magnify" viewBox="0 0 1350 1349.999938" height="1800" preserveAspectRatio="xMidYMid meet" version="1.0"><defs><clipPath id="3797c9d1fa"><path d="M 245 51.113281 L 1120 51.113281 L 1120 1299.113281 L 245 1299.113281 Z M 245 51.113281 " clip-rule="nonzero"/></clipPath></defs><rect x="-135" width="1620" fill="#ffffff" y="-134.999994" height="1619.999926" fill-opacity="1"/><rect x="-135" width="1620" fill="#545454" y="-134.999994" height="1619.999926" fill-opacity="1"/><g clip-path="url(#3797c9d1fa)"><path fill="#ffffff" d="M 805.421875 51.113281 C 805.421875 51.113281 759.007812 252.890625 875.039062 433.199219 C 991.066406 613.507812 1387.421875 968.789062 826.828125 1299.128906 C 826.828125 1299.128906 945.523438 1130.421875 885.773438 1015.261719 C 825.957031 900.105469 697.398438 814.417969 718.804688 634.109375 C 718.804688 634.109375 549.230469 704.65625 624.179688 1024.199219 C 624.179688 1024.199219 528.628906 989.390625 488.484375 895.203125 C 488.484375 895.203125 429.105469 1079.980469 538 1296.027344 C 538 1296.027344 -37.796875 1021.46875 426.4375 488.175781 C 426.4375 488.175781 436.242188 662.277344 504.988281 710.488281 C 504.988281 710.488281 391.566406 239.179688 805.359375 51.238281 Z M 805.421875 51.113281 " fill-opacity="1" fill-rule="evenodd"/><path fill="#ffffff" d="M 805.421875 51.113281 C 805.421875 51.113281 759.007812 252.890625 875.039062 433.199219 C 991.066406 613.507812 1387.421875 968.789062 826.828125 1299.128906 C 826.828125 1299.128906 945.523438 1130.421875 885.773438 1015.261719 C 825.957031 900.105469 697.398438 814.417969 718.804688 634.109375 C 718.804688 634.109375 549.230469 704.65625 624.179688 1024.199219 C 624.179688 1024.199219 528.628906 989.390625 488.484375 895.203125 C 488.484375 895.203125 429.105469 1079.980469 538 1296.027344 C 538 1296.027344 -37.796875 1021.46875 426.4375 488.175781 C 426.4375 488.175781 436.242188 662.277344 504.988281 710.488281 C 504.988281 710.488281 391.566406 239.179688 805.359375 51.238281 Z M 805.421875 51.113281 " fill-opacity="1" fill-rule="evenodd"/></g></svg>