<svg xmlns="http://www.w3.org/2000/svg" xmlns:xlink="http://www.w3.org/1999/xlink" width="1800" zoomAndPan="magnify" viewBox="0 0 1350 1349.999938" height="1800" preserveAspectRatio="xMidYMid meet" version="1.0"><defs><clipPath id="b9280acdff"><path d="M 451 236.703125 L 900 236.703125 L 900 685 L 451 685 Z M 451 236.703125 " clip-rule="nonzero"/></clipPath></defs><path fill="#ffffff" d="M 1038.734375 1010 L 1304.074219 1010 C 1272.429688 765.757812 1150.324219 699.542969 1004.507812 699.542969 C 940.796875 699.542969 881.65625 712.175781 832.589844 746.636719 C 935.183594 787.292969 1003.375 874.496094 1038.734375 1010 " fill-opacity="1" fill-rule="nonzero"/><path fill="#ffffff" d="M 1004.507812 275.699219 C 957.378906 275.699219 914.492188 293.175781 881.566406 321.804688 C 908.53125 361.402344 924.308594 409.027344 924.308594 460.34375 C 924.308594 513.214844 907.414062 562.042969 878.96875 602.246094 C 912.207031 632.265625 956.191406 650.65625 1004.507812 650.65625 C 1107.964844 650.65625 1191.96875 566.707031 1191.96875 463.25 C 1191.96875 359.648438 1107.964844 275.699219 1004.507812 275.699219 " fill-opacity="1" fill-rule="nonzero"/><path fill="#ffffff" d="M 311.761719 1010 L 46.382812 1010 C 78.046875 765.757812 200.113281 699.542969 345.984375 699.542969 C 409.640625 699.542969 468.820312 712.175781 517.886719 746.636719 C 415.308594 787.292969 347.0625 874.496094 311.761719 1010 " fill-opacity="1" fill-rule="nonzero"/><path fill="#ffffff" d="M 345.984375 275.699219 C 393.097656 275.699219 435.964844 293.175781 468.910156 321.804688 C 441.945312 361.402344 426.1875 409.027344 426.1875 460.34375 C 426.1875 513.214844 443.042969 562.042969 471.507812 602.246094 C 438.234375 632.265625 394.300781 650.65625 345.984375 650.65625 C 242.453125 650.65625 158.433594 566.707031 158.433594 463.25 C 158.433594 359.648438 242.453125 275.699219 345.984375 275.699219 " fill-opacity="1" fill-rule="nonzero"/><path fill="#ffffff" d="M 1032.792969 1113 C 995.074219 821.445312 849.335938 742.355469 675.21875 742.355469 C 501.066406 742.355469 355.398438 821.445312 317.683594 1113 L 1032.792969 1113 " fill-opacity="1" fill-rule="nonzero"/><g clip-path="url(#b9280acdff)"><path fill="#ffffff" d="M 899.042969 460.34375 C 899.042969 583.945312 798.785156 684.128906 675.21875 684.128906 C 551.636719 684.128906 451.414062 583.945312 451.414062 460.34375 C 451.414062 336.6875 551.636719 236.519531 675.21875 236.519531 C 798.785156 236.519531 899.042969 336.6875 899.042969 460.34375 " fill-opacity="1" fill-rule="nonzero"/></g></svg>