<svg xmlns="http://www.w3.org/2000/svg" xmlns:xlink="http://www.w3.org/1999/xlink" width="1800" zoomAndPan="magnify" viewBox="0 0 1350 1349.999938" height="1800" preserveAspectRatio="xMidYMid meet" version="1.0"><defs><clipPath id="20de855e0a"><path d="M 60 134.179688 L 1289 134.179688 L 1289 1215.679688 L 60 1215.679688 Z M 60 134.179688 " clip-rule="nonzero"/></clipPath></defs><g clip-path="url(#20de855e0a)"><path fill="#ffffff" d="M 601.792969 182.03125 C 536.078125 296.910156 373.746094 584.347656 243.316406 815.332031 L 70.753906 1120.65625 C 55.226562 1147.992188 61.023438 1169.605469 65.851562 1180.054688 C 75.636719 1201.207031 96.515625 1211.761719 112.78125 1214.613281 L 116.058594 1215.171875 L 1229.65625 1215.199219 L 1227.324219 1215.117188 C 1244.792969 1216.1875 1267.984375 1209.898438 1280.65625 1189.058594 C 1288.761719 1175.683594 1294.582031 1152.925781 1276.140625 1120.574219 L 931.359375 518.15625 L 740.566406 184.9375 C 716.667969 143.15625 688.9375 134.363281 669.890625 134.363281 C 651.289062 134.363281 624.375 142.621094 601.8125 182.03125 L 601.785156 182.03125 Z M 311.203125 854.90625 C 441.609375 624.003906 603.859375 336.667969 669.472656 221.972656 L 670.261719 220.726562 C 671.097656 222 671.914062 223.171875 672.859375 224.851562 L 863.703125 558.132812 C 863.703125 558.132812 1168.195312 1090.199219 1194.242188 1135.6875 L 152.507812 1135.660156 L 311.191406 854.90625 " fill-opacity="1" fill-rule="evenodd"/></g><path fill="#ffffff" d="M 674.5625 1078.007812 C 708.300781 1078.007812 735.636719 1049.707031 735.636719 1014.796875 C 735.636719 979.917969 708.300781 951.617188 674.5625 951.617188 C 640.773438 951.617188 613.441406 979.917969 613.441406 1014.796875 C 613.441406 1049.707031 640.773438 1078.007812 674.5625 1078.007812 " fill-opacity="1" fill-rule="evenodd"/><path fill="#ffffff" d="M 674.5625 458.816406 C 723.304688 458.816406 768.085938 504.917969 762.8125 550.109375 L 721.074219 868.007812 C 717.007812 895.78125 700.242188 916.109375 674.5625 916.109375 C 648.878906 916.109375 632.0625 895.78125 628.050781 868.007812 L 586.285156 550.109375 C 580.988281 504.917969 625.792969 458.816406 674.5625 458.816406 " fill-opacity="1" fill-rule="evenodd"/></svg>